<svg width="550" height="550" viewBox="0 0 550 550" fill="none" xmlns="http://www.w3.org/2000/svg">
<circle cx="274.571" cy="274.571" r="256" fill="#2F3542"/>
<g clip-path="url(#clip0)">
<g filter="url(#filter0_d)">
<path fill-rule="evenodd" clip-rule="evenodd" d="M343.274 170.117C342.511 171.582 341.467 172.883 340.2 173.944C338.933 175.005 337.47 175.806 335.893 176.301C334.317 176.796 332.658 176.975 331.012 176.827C329.366 176.68 327.766 176.21 326.302 175.443L227.211 123.669L175.468 222.776C173.924 225.733 171.268 227.956 168.085 228.954C164.902 229.953 161.453 229.647 158.496 228.102C155.539 226.558 153.316 223.902 152.317 220.719C151.319 217.536 151.625 214.087 153.169 211.13L210.743 100.897C211.506 99.4313 212.551 98.1306 213.817 97.0694C215.084 96.0082 216.547 95.2073 218.124 94.7125C219.701 94.2177 221.359 94.0389 223.005 94.1862C224.651 94.3335 226.252 94.804 227.715 95.5708L282.832 124.358L337.948 153.144C339.414 153.907 340.715 154.952 341.776 156.219C342.837 157.485 343.638 158.949 344.133 160.525C344.628 162.102 344.806 163.761 344.659 165.407C344.512 167.052 344.041 168.653 343.274 170.117ZM390.608 320.951C389.144 320.184 387.544 319.713 385.898 319.566C384.252 319.419 382.593 319.598 381.017 320.092C379.44 320.587 377.976 321.388 376.71 322.449C375.443 323.51 374.399 324.811 373.635 326.277L321.893 425.384L222.801 373.61C221.337 372.845 219.737 372.377 218.092 372.23C216.446 372.084 214.788 372.264 213.212 372.758C211.636 373.253 210.173 374.053 208.906 375.113C207.639 376.173 206.594 377.472 205.829 378.936C205.064 380.4 204.595 382.001 204.449 383.646C204.303 385.292 204.482 386.95 204.977 388.526C205.472 390.102 206.272 391.565 207.332 392.832C208.392 394.098 209.691 395.144 211.155 395.909L321.388 453.482C322.852 454.249 324.452 454.72 326.098 454.867C327.744 455.014 329.403 454.835 330.979 454.341C332.556 453.846 334.019 453.045 335.286 451.984C336.553 450.922 337.597 449.622 338.361 448.156L395.934 337.923C396.701 336.459 397.171 334.859 397.319 333.213C397.466 331.567 397.287 329.908 396.792 328.332C396.298 326.755 395.497 325.292 394.435 324.025C393.374 322.759 392.073 321.714 390.608 320.951ZM457.982 273.501C457.995 276.831 456.686 280.03 454.342 282.395C451.999 284.76 448.812 286.097 445.482 286.114L103.75 288.021C100.506 287.911 97.4296 286.549 95.1668 284.221C92.904 281.893 91.6303 278.78 91.6126 275.534C91.595 272.287 92.8349 269.16 95.0722 266.808C97.3096 264.455 100.371 263.06 103.614 262.915L445.346 261.008C448.675 260.995 451.874 262.304 454.239 264.648C456.604 266.992 457.942 270.179 457.958 273.509L457.982 273.501Z" fill="url(#paint0_linear)"/>
</g>
</g>
<defs>
<filter id="filter0_d" x="86.6124" y="93.1361" width="376.37" height="370.781" filterUnits="userSpaceOnUse" color-interpolation-filters="sRGB">
<feFlood flood-opacity="0" result="BackgroundImageFix"/>
<feColorMatrix in="SourceAlpha" type="matrix" values="0 0 0 0 0 0 0 0 0 0 0 0 0 0 0 0 0 0 127 0"/>
<feOffset dy="4"/>
<feGaussianBlur stdDeviation="2.5"/>
<feColorMatrix type="matrix" values="0 0 0 0 0 0 0 0 0 0 0 0 0 0 0 0 0 0 0.25 0"/>
<feBlend mode="normal" in2="BackgroundImageFix" result="effect1_dropShadow"/>
<feBlend mode="normal" in="SourceGraphic" in2="effect1_dropShadow" result="shape"/>
</filter>
<linearGradient id="paint0_linear" x1="218.261" y1="95.1505" x2="205.771" y2="426.072" gradientUnits="userSpaceOnUse">
<stop offset="0.123102" stop-color="#FF6B81"/>
<stop offset="0.950266" stop-color="#5352ED"/>
</linearGradient>
<clipPath id="clip0">
<rect width="402" height="402" fill="white" transform="translate(348.142) rotate(60)"/>
</clipPath>
</defs>
</svg>
