<svg width="30" height="21" viewBox="0 0 30 21" fill="none" xmlns="http://www.w3.org/2000/svg">
<path d="M2.49996 0H12.9166C13.4692 0 13.9991 0.219494 14.3898 0.610195C14.7805 1.0009 15 1.5308 15 2.08333C15 2.63587 14.7805 3.16577 14.3898 3.55647C13.9991 3.94717 13.4692 4.16667 12.9166 4.16667H2.49996C1.94743 4.16667 1.41752 3.94717 1.02682 3.55647C0.63612 3.16577 0.416626 2.63587 0.416626 2.08333C0.416626 1.5308 0.63612 1.0009 1.02682 0.610195C1.41752 0.219494 1.94743 0 2.49996 0ZM17.0833 16.6667H27.5C28.0525 16.6667 28.5824 16.8862 28.9731 17.2769C29.3638 17.6676 29.5833 18.1975 29.5833 18.75C29.5833 19.3025 29.3638 19.8324 28.9731 20.2231C28.5824 20.6138 28.0525 20.8333 27.5 20.8333H17.0833C16.5308 20.8333 16.0009 20.6138 15.6102 20.2231C15.2195 19.8324 15 19.3025 15 18.75C15 18.1975 15.2195 17.6676 15.6102 17.2769C16.0009 16.8862 16.5308 16.6667 17.0833 16.6667ZM2.49996 8.33333H27.5C28.0525 8.33333 28.5824 8.55283 28.9731 8.94353C29.3638 9.33423 29.5833 9.86413 29.5833 10.4167C29.5833 10.9692 29.3638 11.4991 28.9731 11.8898C28.5824 12.2805 28.0525 12.5 27.5 12.5H2.49996C1.94743 12.5 1.41752 12.2805 1.02682 11.8898C0.63612 11.4991 0.416626 10.9692 0.416626 10.4167C0.416626 9.86413 0.63612 9.33423 1.02682 8.94353C1.41752 8.55283 1.94743 8.33333 2.49996 8.33333Z" fill="#FD5C63"/>
</svg>
