<svg width="512" height="512" viewBox="0 0 512 512" fill="none" xmlns="http://www.w3.org/2000/svg">
<g clip-path="url(#clip0)">
<path d="M140.61 273.063H134.654V250.373C134.654 238.75 124.061 230.94 108.296 230.94C92.531 230.94 81.939 238.75 81.939 250.373V273.063H65.571L91.248 172.356C92.349 169.61 92.442 166.607 92.434 163.964L92.433 163.68C92.433 148.048 69.467 142.943 61.552 142.943C51.42 142.943 43.138 148.091 38.829 157.066C38.63 157.481 38.47 157.913 38.348 158.356C0 298.98 0 300.981 0 302.305C0 314.401 8.537 323.181 20.297 323.181H33.97C38.17 323.181 41.574 319.776 41.574 315.577C41.574 311.378 38.17 307.973 33.97 307.973H20.297C17.113 307.973 15.41 306.279 15.225 302.933C17.179 294.325 38.481 215.681 52.818 163.102C54.603 159.814 57.539 158.148 61.552 158.148C66.841 158.148 75.907 161.486 77.225 163.88L77.226 164.008C77.227 164.592 77.232 166.092 77.094 166.764C76.916 167.161 76.773 167.573 76.664 167.995L48.417 278.788C47.837 281.063 48.341 283.478 49.782 285.332C51.222 287.186 53.438 288.27 55.786 288.27H89.543C93.743 288.27 97.147 284.865 97.147 280.666V250.372C97.147 247.844 102.913 246.147 108.296 246.147C113.777 246.147 119.446 247.728 119.446 250.372V280.666C119.446 284.865 122.85 288.27 127.05 288.27H140.61C142.862 288.27 144.836 292.941 144.836 298.266C144.836 303.279 141.814 307.437 140.454 307.974H127.05C122.85 307.974 119.446 311.379 119.446 315.578V349.623C119.446 351.577 114.574 353.848 108.296 353.848C101.829 353.848 97.147 351.325 97.147 349.623V315.578C97.147 311.379 93.743 307.974 89.543 307.974H59.318C55.118 307.974 51.714 311.379 51.714 315.578C51.714 319.777 55.118 323.182 59.318 323.182H81.939V349.623C81.939 360.883 93.025 369.056 108.296 369.056C123.816 369.056 134.654 361.065 134.654 349.623V323.182H140.61C149.802 323.182 160.044 312.95 160.044 298.266C160.043 283.663 151.87 273.063 140.61 273.063Z" fill="#FF4757"/>
<path d="M492.566 273.063H486.61V250.373C486.61 238.75 476.017 230.94 460.252 230.94C444.487 230.94 433.895 238.75 433.895 250.373V273.063H417.527L443.206 172.355C444.306 169.61 444.399 166.605 444.391 163.962L444.39 163.681C444.39 148.049 421.424 142.944 413.509 142.944C403.377 142.944 395.094 148.092 390.785 157.067C390.586 157.482 390.426 157.914 390.304 158.357C390.304 158.357 385.435 176.209 379.179 199.255C379.179 199.256 379.179 199.257 379.178 199.258L371.299 228.329C351.954 299.856 351.954 300.778 351.954 302.307C351.954 314.403 360.491 323.183 372.252 323.183H433.892V349.624C433.892 360.884 444.977 369.057 460.249 369.057C475.769 369.057 486.607 361.066 486.607 349.624V323.183H492.563C501.755 323.183 511.997 312.951 511.997 298.268C512 283.663 503.826 273.063 492.566 273.063ZM492.41 307.974H479.006C474.806 307.974 471.402 311.379 471.402 315.578V349.623C471.402 351.577 466.53 353.848 460.252 353.848C453.785 353.848 449.103 351.325 449.103 349.623V315.578C449.103 311.379 445.699 307.974 441.499 307.974H372.255C369.072 307.974 367.368 306.28 367.182 302.937C367.859 299.971 371.383 286.282 385.983 232.303L393.86 203.239C399.364 182.963 403.794 166.709 404.776 163.106C406.561 159.818 409.497 158.152 413.511 158.152C418.8 158.152 427.865 161.49 429.184 163.884L429.185 164.008C429.186 164.593 429.191 166.098 429.052 166.77C428.875 167.166 428.732 167.578 428.623 168L400.374 278.79C399.794 281.065 400.298 283.48 401.739 285.334C403.179 287.188 405.395 288.272 407.743 288.272H441.5C445.7 288.272 449.104 284.867 449.104 280.668V250.374C449.104 247.846 454.87 246.149 460.253 246.149C465.734 246.149 471.403 247.73 471.403 250.374V280.668C471.403 284.867 474.807 288.272 479.007 288.272H492.567C494.819 288.272 496.793 292.943 496.793 298.268C496.792 303.281 493.769 307.437 492.41 307.974Z" fill="#FF4757"/>
<path d="M330.892 206.939C328.38 203.576 323.613 202.888 320.25 205.403C316.888 207.918 316.2 212.684 318.715 216.046C328.883 229.643 334.257 245.832 334.257 262.864C334.257 306.013 299.153 341.116 256.005 341.116C212.855 341.116 177.752 306.012 177.752 262.864C177.752 219.715 212.856 184.611 256.005 184.611C273.157 184.611 289.439 190.055 303.088 200.355C306.441 202.885 311.21 202.218 313.739 198.865C316.268 195.513 315.601 190.745 312.249 188.215C295.938 175.908 276.489 169.403 256.004 169.403C204.47 169.403 162.543 211.33 162.543 262.864C162.543 314.398 204.47 356.324 256.004 356.324C307.538 356.324 349.464 314.398 349.464 262.864C349.464 242.523 343.042 223.185 330.892 206.939Z" fill="#FF4757"/>
<path d="M296.624 292.726L266.761 262.863L296.624 233C299.592 230.031 299.592 225.217 296.622 222.247C293.651 219.277 288.838 219.277 285.868 222.247L256.005 252.11L226.142 222.247C223.171 219.277 218.358 219.277 215.388 222.247C212.418 225.217 212.418 230.031 215.388 233L245.251 262.863L215.388 292.726C212.418 295.696 212.418 300.51 215.388 303.479C216.873 304.963 218.82 305.706 220.766 305.706C222.712 305.706 224.658 304.964 226.143 303.479L256.006 273.616L285.869 303.479C287.354 304.963 289.301 305.706 291.246 305.706C293.191 305.706 295.138 304.964 296.624 303.479C299.593 300.51 299.593 295.695 296.624 292.726Z" fill="#FF4757"/>
</g>
<defs>
<clipPath id="clip0">
<rect width="511.999" height="511.999" fill="white"/>
</clipPath>
</defs>
</svg>
