<svg width="550" height="550" viewBox="0 0 550 550" fill="none" xmlns="http://www.w3.org/2000/svg">
<circle cx="275" cy="275" r="256" fill="#2F3542"/>
<g clip-path="url(#clip0)">
<g filter="url(#filter0_d)">
<path fill-rule="evenodd" clip-rule="evenodd" d="M343.703 170.546C342.94 172.011 341.895 173.312 340.629 174.373C339.362 175.434 337.899 176.235 336.322 176.73C334.745 177.225 333.087 177.404 331.441 177.256C329.795 177.109 328.195 176.639 326.731 175.872L227.64 124.098L175.897 223.205C174.352 226.162 171.697 228.384 168.514 229.383C165.331 230.382 161.881 230.076 158.924 228.531C155.967 226.987 153.745 224.331 152.746 221.148C151.747 217.965 152.054 214.516 153.598 211.559L211.172 101.326C211.935 99.8603 212.98 98.5596 214.246 97.4984C215.513 96.4371 216.976 95.6362 218.553 95.1415C220.129 94.6467 221.788 94.4678 223.434 94.6151C225.08 94.7624 226.68 95.2329 228.144 95.9998L283.261 124.786L338.377 153.573C339.843 154.336 341.143 155.381 342.205 156.648C343.266 157.914 344.067 159.378 344.562 160.954C345.056 162.531 345.235 164.19 345.088 165.836C344.941 167.481 344.47 169.082 343.703 170.546ZM391.037 321.38C389.573 320.613 387.972 320.142 386.327 319.995C384.681 319.848 383.022 320.027 381.445 320.521C379.869 321.016 378.405 321.817 377.139 322.878C375.872 323.939 374.827 325.24 374.064 326.706L322.321 425.813L223.23 374.039C221.766 373.274 220.166 372.806 218.52 372.659C216.875 372.513 215.217 372.693 213.641 373.187C212.065 373.682 210.602 374.482 209.335 375.542C208.068 376.602 207.023 377.901 206.258 379.365C205.493 380.829 205.024 382.43 204.878 384.075C204.732 385.721 204.911 387.379 205.406 388.955C205.9 390.531 206.701 391.994 207.761 393.261C208.821 394.527 210.12 395.573 211.584 396.338L321.817 453.911C323.281 454.678 324.881 455.149 326.527 455.296C328.173 455.443 329.832 455.264 331.408 454.769C332.985 454.275 334.448 453.474 335.715 452.413C336.981 451.351 338.026 450.051 338.789 448.585L396.363 338.352C397.13 336.888 397.6 335.288 397.747 333.642C397.895 331.996 397.716 330.337 397.221 328.761C396.726 327.184 395.925 325.721 394.864 324.454C393.803 323.188 392.502 322.143 391.037 321.38ZM458.411 273.93C458.424 277.26 457.115 280.459 454.771 282.824C452.427 285.188 449.24 286.526 445.911 286.543L104.179 288.45C100.935 288.34 97.8584 286.978 95.5956 284.65C93.3328 282.322 92.0591 279.209 92.0415 275.962C92.0238 272.716 93.2637 269.589 95.501 267.237C97.7384 264.884 100.8 263.489 104.043 263.344L445.774 261.437C449.104 261.424 452.303 262.733 454.668 265.077C457.033 267.421 458.371 270.608 458.387 273.938L458.411 273.93Z" fill="url(#paint0_linear)"/>
</g>
</g>
<defs>
<filter id="filter0_d" x="87.0413" y="93.5651" width="376.37" height="370.781" filterUnits="userSpaceOnUse" color-interpolation-filters="sRGB">
<feFlood flood-opacity="0" result="BackgroundImageFix"/>
<feColorMatrix in="SourceAlpha" type="matrix" values="0 0 0 0 0 0 0 0 0 0 0 0 0 0 0 0 0 0 127 0"/>
<feOffset dy="4"/>
<feGaussianBlur stdDeviation="2.5"/>
<feColorMatrix type="matrix" values="0 0 0 0 0 0 0 0 0 0 0 0 0 0 0 0 0 0 0.25 0"/>
<feBlend mode="normal" in2="BackgroundImageFix" result="effect1_dropShadow"/>
<feBlend mode="normal" in="SourceGraphic" in2="effect1_dropShadow" result="shape"/>
</filter>
<linearGradient id="paint0_linear" x1="218.69" y1="95.5795" x2="206.2" y2="426.501" gradientUnits="userSpaceOnUse">
<stop offset="0.123102" stop-color="#FF6B81"/>
<stop offset="0.950266" stop-color="#5352ED"/>
</linearGradient>
<clipPath id="clip0">
<rect width="402" height="402" fill="white" transform="translate(348.571 0.428955) rotate(60)"/>
</clipPath>
</defs>
</svg>
