<svg width="512" height="512" viewBox="0 0 512 512" fill="none" xmlns="http://www.w3.org/2000/svg">
<path d="M492 236H20C8.954 236 0 244.954 0 256C0 267.046 8.954 276 20 276H492C503.046 276 512 267.046 512 256C512 244.954 503.046 236 492 236Z" fill="#0BE881"/>
<path d="M492 76H20C8.954 76 0 84.954 0 96C0 107.046 8.954 116 20 116H492C503.046 116 512 107.046 512 96C512 84.954 503.046 76 492 76Z" fill="#0BE881"/>
<path d="M492 396H20C8.954 396 0 404.954 0 416C0 427.046 8.954 436 20 436H492C503.046 436 512 427.046 512 416C512 404.954 503.046 396 492 396Z" fill="#0BE881"/>
</svg>
